<svg xmlns="http://www.w3.org/2000/svg" width="600" height="360" viewBox="0 0 600 360">
  <defs><linearGradient id="g" x1="0" y1="0" x2="1" y2="1"><stop offset="0%" stop-color="#0e0606"/><stop offset="100%" stop-color="#0a0a0a"/></linearGradient></defs>
  <rect width="600" height="360" fill="url(#g)"/>
  <rect x="30" y="30" width="250" height="300" rx="8" fill="#131313" stroke="rgba(192,57,43,0.2)" stroke-width="1"/>
  <circle cx="70" cy="62" r="22" fill="#2a0608" stroke="rgba(192,57,43,0.4)" stroke-width="1.5"/>
  <text x="70" y="68" text-anchor="middle" font-family="sans-serif" font-size="16">V</text>
  <text x="132" y="57" font-family="sans-serif" font-size="12" font-weight="bold" fill="rgba(240,236,228,0.9)">@veroapparel</text>
  <text x="132" y="74" font-family="sans-serif" font-size="9" fill="rgba(180,180,180,0.5)">28.4k followers</text>
  <rect x="42" y="95" width="70" height="70" rx="2" fill="#1a0a08"/>
  <rect x="120" y="95" width="70" height="70" rx="2" fill="#080a1a"/>
  <rect x="198" y="95" width="70" height="70" rx="2" fill="#0a1a0a"/>
  <rect x="42" y="173" width="70" height="70" rx="2" fill="#1a1008"/>
  <rect x="120" y="173" width="70" height="70" rx="2" fill="#1a0a0a"/>
  <rect x="198" y="173" width="70" height="70" rx="2" fill="#0a0a1a"/>
  <text x="77" y="140" text-anchor="middle" font-family="sans-serif" font-size="30">👗</text>
  <text x="155" y="140" text-anchor="middle" font-family="sans-serif" font-size="30">👜</text>
  <text x="233" y="140" text-anchor="middle" font-family="sans-serif" font-size="30">✨</text>
  <text x="77" y="218" text-anchor="middle" font-family="sans-serif" font-size="30">🧣</text>
  <text x="155" y="218" text-anchor="middle" font-family="sans-serif" font-size="30">💎</text>
  <text x="233" y="218" text-anchor="middle" font-family="sans-serif" font-size="30">🌿</text>
  <rect x="320" y="30" width="260" height="300" rx="8" fill="#131313" stroke="rgba(192,57,43,0.15)" stroke-width="1"/>
  <text x="450" y="62" text-anchor="middle" font-family="sans-serif" font-size="11" fill="rgba(192,57,43,0.7)">GROWTH</text>
  <polyline points="340,280 380,268 420,252 460,228 500,195 540,155 560,118" fill="none" stroke="rgba(192,57,43,0.7)" stroke-width="2"/>
  <polygon points="340,280 380,268 420,252 460,228 500,195 540,155 560,118 560,280" fill="rgba(192,57,43,0.06)"/>
  <text x="450" y="175" text-anchor="middle" font-family="sans-serif" font-size="26" font-weight="bold" fill="rgba(192,57,43,0.9)">1300%</text>
  <text x="450" y="198" text-anchor="middle" font-family="sans-serif" font-size="11" fill="rgba(180,180,180,0.6)">growth · 8 months</text>
  <text x="450" y="216" text-anchor="middle" font-family="sans-serif" font-size="10" fill="rgba(100,200,100,0.7)">8.4% engagement</text>
</svg>
