<svg xmlns="http://www.w3.org/2000/svg" width="600" height="360" viewBox="0 0 600 360">
  <defs><linearGradient id="g" x1="0" y1="0" x2="1" y2="1"><stop offset="0%" stop-color="#06100a"/><stop offset="100%" stop-color="#0a0a0a"/></linearGradient></defs>
  <rect width="600" height="360" fill="url(#g)"/>
  <text x="300" y="38" text-anchor="middle" font-family="Cinzel,serif" font-size="13" fill="rgba(100,200,140,0.7)" letter-spacing="3">LEXICARE BOOKING</text>
  <rect x="30" y="52" width="310" height="280" rx="8" fill="#131313" stroke="rgba(100,200,140,0.2)" stroke-width="1"/>
  <rect x="30" y="52" width="310" height="38" rx="8" fill="#0a1a0f"/>
  <text x="185" y="76" text-anchor="middle" font-family="sans-serif" font-size="12" fill="rgba(100,200,140,0.8)">March 2025</text>
  <g font-family="sans-serif" font-size="9" fill="rgba(180,180,180,0.4)" text-anchor="middle">
    <text x="60" y="110">M</text><text x="100" y="110">T</text><text x="140" y="110">W</text>
    <text x="180" y="110">T</text><text x="220" y="110">F</text><text x="260" y="110">S</text><text x="300" y="110">S</text>
  </g>
  <g font-family="sans-serif" font-size="11" text-anchor="middle" fill="rgba(180,180,180,0.5)">
    <text x="60" y="138">3</text><text x="100" y="138">4</text>
    <rect x="122" y="124" width="36" height="22" rx="4" fill="rgba(192,57,43,0.3)"/>
    <text x="140" y="139" fill="rgba(240,236,228,0.9)">5</text>
    <text x="180" y="138">6</text>
    <rect x="202" y="124" width="36" height="22" rx="4" fill="rgba(100,200,140,0.2)" stroke="rgba(100,200,140,0.4)" stroke-width="1"/>
    <text x="220" y="139" fill="rgba(100,200,140,0.9)">7</text>
    <text x="260" y="138">8</text><text x="300" y="138">9</text>
    <text x="60" y="170">10</text><text x="100" y="170">11</text><text x="140" y="170">12</text>
    <text x="180" y="170">13</text><text x="220" y="170">14</text>
  </g>
  <rect x="42" y="188" width="286" height="40" rx="4" fill="rgba(100,200,140,0.08)" stroke="rgba(100,200,140,0.25)" stroke-width="1"/>
  <text x="185" y="206" text-anchor="middle" font-family="sans-serif" font-size="10" fill="rgba(100,200,140,0.8)">Dr. Patel — 10:00 AM</text>
  <text x="185" y="220" text-anchor="middle" font-family="sans-serif" font-size="9" fill="rgba(180,180,180,0.5)">Video Call · 30 min</text>
  <rect x="42" y="240" width="286" height="80" rx="4" fill="#0a0a0a" stroke="rgba(100,200,140,0.2)" stroke-width="1"/>
  <text x="185" y="268" text-anchor="middle" font-family="sans-serif" font-size="10" fill="rgba(100,200,140,0.7)">HIPAA Compliant</text>
  <text x="185" y="288" text-anchor="middle" font-family="sans-serif" font-size="9" fill="rgba(180,180,180,0.4)">99.9% uptime · Multi-tenant</text>
  <rect x="360" y="52" width="215" height="280" rx="8" fill="#131313" stroke="rgba(100,200,140,0.15)" stroke-width="1"/>
  <text x="467" y="82" text-anchor="middle" font-family="sans-serif" font-size="10" fill="rgba(100,200,140,0.6)">SYSTEM STATUS</text>
  <text x="467" y="120" text-anchor="middle" font-family="sans-serif" font-size="30" font-weight="bold" fill="rgba(100,200,140,0.9)">99.9%</text>
  <text x="467" y="140" text-anchor="middle" font-family="sans-serif" font-size="10" fill="rgba(180,180,180,0.5)">uptime</text>
  <g font-family="sans-serif" font-size="10">
    <text x="378" y="175" fill="rgba(100,200,100,0.7)">API — Operational</text>
    <text x="378" y="198" fill="rgba(100,200,100,0.7)">Database — Healthy</text>
    <text x="378" y="221" fill="rgba(100,200,100,0.7)">Auth — Operational</text>
    <text x="378" y="244" fill="rgba(100,200,100,0.7)">Video — Operational</text>
  </g>
</svg>
