<svg xmlns="http://www.w3.org/2000/svg" width="600" height="360" viewBox="0 0 600 360">
  <defs><linearGradient id="g" x1="0" y1="0" x2="1" y2="1"><stop offset="0%" stop-color="#060e1a"/><stop offset="100%" stop-color="#0a0a0a"/></linearGradient></defs>
  <rect width="600" height="360" fill="url(#g)"/>
  <rect x="40" y="40" width="520" height="280" rx="8" fill="#131313" stroke="rgba(80,120,200,0.3)" stroke-width="1"/>
  <rect x="40" y="40" width="520" height="30" rx="8" fill="#1e1e1e"/>
  <circle cx="62" cy="55" r="5" fill="#c0392b" opacity="0.7"/>
  <circle cx="80" cy="55" r="5" fill="#e8a838" opacity="0.6"/>
  <circle cx="98" cy="55" r="5" fill="#3a8b3a" opacity="0.6"/>
  <text x="300" y="58" text-anchor="middle" font-family="monospace" font-size="10" fill="rgba(180,180,180,0.5)">foliostudio.app/portfolio</text>
  <rect x="40" y="70" width="120" height="250" fill="#0e0e0e"/>
  <text x="100" y="100" text-anchor="middle" font-family="sans-serif" font-size="9" fill="rgba(192,57,43,0.6)">BLOCKS</text>
  <rect x="52" y="108" width="96" height="24" rx="4" fill="#1a0608" stroke="rgba(192,57,43,0.2)" stroke-width="1"/>
  <text x="100" y="124" text-anchor="middle" font-family="sans-serif" font-size="9" fill="rgba(240,236,228,0.7)">Hero</text>
  <rect x="52" y="140" width="96" height="24" rx="4" fill="#131313"/>
  <text x="100" y="156" text-anchor="middle" font-family="sans-serif" font-size="9" fill="rgba(180,180,180,0.5)">Gallery</text>
  <rect x="52" y="172" width="96" height="24" rx="4" fill="#131313"/>
  <text x="100" y="188" text-anchor="middle" font-family="sans-serif" font-size="9" fill="rgba(180,180,180,0.5)">About</text>
  <rect x="52" y="204" width="96" height="24" rx="4" fill="#131313"/>
  <text x="100" y="220" text-anchor="middle" font-family="sans-serif" font-size="9" fill="rgba(180,180,180,0.5)">Contact</text>
  <rect x="160" y="70" width="400" height="250" fill="#0a0a0a"/>
  <rect x="175" y="85" width="370" height="75" rx="4" fill="#1a0f2a"/>
  <text x="360" y="122" text-anchor="middle" font-family="Cinzel,serif" font-size="15" fill="rgba(240,236,228,0.8)">Alex Chen — Designer</text>
  <text x="360" y="142" text-anchor="middle" font-family="sans-serif" font-size="9" fill="rgba(180,180,180,0.5)">UI/UX · Brand · Motion</text>
  <rect x="175" y="170" width="115" height="120" rx="4" fill="#131313"/>
  <rect x="300" y="170" width="115" height="55" rx="4" fill="#131313"/>
  <rect x="300" y="235" width="55" height="55" rx="4" fill="#131313"/>
  <rect x="363" y="235" width="52" height="55" rx="4" fill="#131313"/>
</svg>
