<svg xmlns="http://www.w3.org/2000/svg" width="600" height="360" viewBox="0 0 600 360">
  <defs>
    <linearGradient id="g" x1="0" y1="0" x2="1" y2="1"><stop offset="0%" stop-color="#060a0f"/><stop offset="100%" stop-color="#0a0a0a"/></linearGradient>
    <linearGradient id="upline" x1="0" y1="100%" x2="0" y2="0%"><stop offset="0%" stop-color="rgba(80,200,80,0)"/><stop offset="100%" stop-color="rgba(80,200,80,0.2)"/></linearGradient>
  </defs>
  <rect width="600" height="360" fill="url(#g)"/>
  <text x="300" y="45" text-anchor="middle" font-family="Cinzel,serif" font-size="12" fill="rgba(80,180,80,0.7)" letter-spacing="4">GREENPATH SEO — 11 MONTHS</text>
  <rect x="50" y="60" width="500" height="240" rx="6" fill="#111" stroke="rgba(80,180,80,0.15)" stroke-width="1"/>
  <g stroke="rgba(255,255,255,0.04)" stroke-width="1">
    <line x1="50" y1="110" x2="550" y2="110"/><line x1="50" y1="150" x2="550" y2="150"/>
    <line x1="50" y1="190" x2="550" y2="190"/><line x1="50" y1="230" x2="550" y2="230"/>
  </g>
  <polygon points="70,280 120,275 170,265 220,252 270,234 320,210 370,182 420,150 470,122 530,108 530,280" fill="url(#upline)"/>
  <polyline points="70,280 120,275 170,265 220,252 270,234 320,210 370,182 420,150 470,122 530,108" fill="none" stroke="rgba(80,200,80,0.8)" stroke-width="2.5"/>
  <g fill="rgba(80,200,80,0.9)">
    <circle cx="70" cy="280" r="4"/><circle cx="170" cy="265" r="4"/>
    <circle cx="270" cy="234" r="4"/><circle cx="370" cy="182" r="4"/>
    <circle cx="470" cy="122" r="4"/><circle cx="530" cy="108" r="5"/>
  </g>
  <text x="70"  y="295" font-family="sans-serif" font-size="9" fill="rgba(140,140,140,0.5)" text-anchor="middle">2,100</text>
  <text x="530" y="100" font-family="sans-serif" font-size="9" fill="rgba(80,200,80,0.8)" text-anchor="middle">10,920</text>
  <rect x="370" y="250" width="150" height="34" rx="4" fill="rgba(80,200,80,0.12)" stroke="rgba(80,200,80,0.3)" stroke-width="1"/>
  <text x="445" y="272" text-anchor="middle" font-family="sans-serif" font-size="13" font-weight="bold" fill="rgba(80,200,80,0.9)">420% traffic</text>
  <text x="300" y="330" text-anchor="middle" font-family="Cinzel,serif" font-size="10" fill="rgba(192,57,43,0.5)" letter-spacing="3">11-MONTH SEO CAMPAIGN</text>
</svg>
